<svg width="125" height="29" viewBox="0 0 125 29" fill="none" xmlns="http://www.w3.org/2000/svg">
<path d="M2.17192 11.7594H14.6888V14.8128L9.98186 15.1265C2.37844 15.621 0 17.3673 0 22.2657V23.2531C0 26.8383 2.89646 29 7.34357 29C10.8613 29 12.8783 28.2813 15.3618 26.081H15.7748V28.4158H20.7915V7H2.17192V11.7594ZM14.6888 22.0864C13.1399 23.4308 10.8097 24.3272 8.89592 24.3272C6.8307 24.3272 5.94782 23.6535 5.99945 22.1715C6.05108 20.107 6.93051 19.6125 10.9129 19.2988L14.6888 18.9851V22.0864Z" fill="#FF8800"/>
<path fill-rule="evenodd" clip-rule="evenodd" d="M29.0275 6.55252H38.529V10.9966H43.7109V28.4069H37.6652V11.4555H29.0275V28.4069H22.98V0H29.0275V6.55252ZM117.442 15.3492L113.783 15.0275C111.754 14.8445 111.247 14.3871 111.247 12.9206C111.247 11.271 111.959 10.8579 114.797 10.8579C117.333 10.8579 118.049 11.2253 118.405 12.7834H124.096C123.944 7.56027 122.166 6.22782 115.102 6.22782C107.379 6.22782 105.448 7.55722 105.448 12.9175C105.448 17.8205 106.87 19.1484 112.613 19.6529L115.611 19.9274C118.304 20.156 118.963 20.615 118.963 22.0816C118.963 23.8684 118.15 24.3257 114.848 24.3257C111.952 24.3257 111.189 23.9141 111.037 22.2188H105.289C105.441 27.6248 107.271 29 114.588 29C122.717 29 124.749 27.5334 124.749 21.5771C124.757 17.1359 123.285 15.8523 117.442 15.3492ZM86.3138 15.7609C86.3138 8.70521 83.6223 6.23087 75.8976 6.23087C68.2759 6.23087 65.2785 9.43242 65.2785 17.4104C65.2785 26.1171 67.9209 28.997 76.4572 28.997C82.6061 28.997 85.1962 27.3017 86.0601 22.536H80.2172C79.5562 24.0087 78.8461 24.3288 76.3642 24.3288C72.6041 24.3288 71.6387 23.3668 71.4358 19.2887H85.9164C86.1588 18.1249 86.2918 16.9447 86.3138 15.7609ZM71.4782 14.9818C71.5289 11.9129 72.8999 10.7679 76.1528 10.7679C79.2518 10.7679 80.5216 11.9129 80.6247 14.9818H71.4782ZM89.8336 7.513V28.4069H95.8811V11.2253H103.151V6.551H95.8811V5.95643C95.9302 4.67275 96.287 4.30686 97.4552 4.30686H104.061V0H96.9447C92.1194 0 89.8336 1.32789 89.8336 7.513ZM54.191 28.4069H48.1451V6.55255H63.1853V11.6842H54.191V28.4069Z" fill="black"/>
</svg>
