<svg width="68" height="68" viewBox="0 0 68 68" fill="none" xmlns="http://www.w3.org/2000/svg">
<path d="M66 34C66 38.2023 65.1723 42.3635 63.5641 46.2459C61.956 50.1283 59.5989 53.6559 56.6274 56.6274C53.6559 59.5989 50.1283 61.956 46.2459 63.5641C42.3634 65.1723 38.2023 66 34 66C29.7977 66 25.6365 65.1723 21.7541 63.5641C17.8717 61.956 14.3441 59.5989 11.3726 56.6274C8.40111 53.6559 6.044 50.1283 4.43585 46.2459C2.8277 42.3634 2 38.2023 2 34C2 29.7977 2.82771 25.6365 4.43586 21.7541C6.04401 17.8717 8.40111 14.3441 11.3726 11.3726C14.3441 8.40111 17.8717 6.044 21.7541 4.43585C25.6366 2.8277 29.7977 2 34 2C38.2023 2 42.3635 2.82771 46.2459 4.43586C50.1283 6.04401 53.6559 8.40111 56.6274 11.3726C59.5989 14.3441 61.956 17.8717 63.5641 21.7541C65.1723 25.6366 66 29.7977 66 34L66 34Z" stroke="#26DEE3" stroke-width="4" stroke-dasharray="8 8"/>
<path d="M58 34C58 37.1517 57.3792 40.2726 56.1731 43.1844C54.967 46.0962 53.1992 48.742 50.9706 50.9706C48.742 53.1992 46.0962 54.967 43.1844 56.1731C40.2726 57.3792 37.1517 58 34 58C30.8483 58 27.7274 57.3792 24.8156 56.1731C21.9038 54.967 19.258 53.1992 17.0294 50.9706C14.8008 48.742 13.033 46.0962 11.8269 43.1844C10.6208 40.2726 10 37.1517 10 34C10 30.8483 10.6208 27.7274 11.8269 24.8156C13.033 21.9038 14.8008 19.258 17.0294 17.0294C19.258 14.8008 21.9038 13.033 24.8156 11.8269C27.7274 10.6208 30.8483 10 34 10C37.1517 10 40.2726 10.6208 43.1844 11.8269C46.0962 13.033 48.742 14.8008 50.9706 17.0294C53.1992 19.258 54.967 21.9038 56.1731 24.8156C57.3792 27.7274 58 30.8483 58 34L58 34Z" stroke="#0053CF" stroke-width="4"/>
<path d="M43.2388 43.1844C43.7413 40.2726 44 37.1517 44 34C44 30.8483 43.7413 27.7274 43.2388 24.8156C42.7362 21.9038 41.9997 19.258 41.0711 17.0294C40.1425 14.8008 39.0401 13.033 37.8268 11.8269C36.6136 10.6208 35.3132 10 34 10C32.6868 10 31.3864 10.6208 30.1732 11.8269C28.9599 13.033 27.8575 14.8008 26.9289 17.0294C26.0003 19.258 25.2638 21.9038 24.7612 24.8156C24.2587 27.7274 24 30.8483 24 34C24 37.1517 24.2587 40.2726 24.7612 43.1844C25.2637 46.0962 26.0003 48.742 26.9289 50.9706C27.8575 53.1992 28.9599 54.967 30.1732 56.1731C31.3864 57.3792 32.6868 58 34 58C35.3132 58 36.6136 57.3792 37.8268 56.1731C39.0401 54.967 40.1425 53.1992 41.0711 50.9706C41.9997 48.742 42.7362 46.0962 43.2388 43.1844Z" stroke="#0053CF" stroke-width="4"/>
<path d="M12.5 45H54.5" stroke="#0053CF" stroke-width="4" stroke-linecap="round"/>
<path d="M12.5 25H54.5" stroke="#0053CF" stroke-width="4" stroke-linecap="round"/>
</svg>
