<svg width="133" height="40" viewBox="0 0 133 40" fill="none" xmlns="http://www.w3.org/2000/svg">
<path d="M12.1049 15.2765C14.4264 15.2765 15.9602 16.4452 16.6235 18.7408L21.5566 17.0713C21.0591 15.1513 20.0228 13.5234 18.3646 12.1878C16.7064 10.8521 14.5508 10.1426 11.9806 10.1426C8.99585 10.1426 6.46712 11.1861 4.43585 13.2313C2.40458 15.3182 1.40967 17.9061 1.40967 21.0365C1.40967 24.1669 2.40458 26.7548 4.4773 28.8417C6.55003 30.9287 9.07876 31.9304 12.1464 31.9304C14.6751 31.9304 16.7893 31.2626 18.4475 29.8852C20.1057 28.5495 21.1835 26.9217 21.6809 25.0017L16.8308 23.3739C16.5406 24.3339 16.0017 25.1687 15.2555 25.8365C14.4678 26.5043 13.4315 26.8382 12.1464 26.8382C10.654 26.8382 9.4104 26.3374 8.41549 25.2939C7.42058 24.2504 6.92312 22.8313 6.92312 21.0365C6.92312 19.2834 7.42058 17.8643 8.41549 16.8208C9.4104 15.8191 10.6126 15.2765 12.1049 15.2765ZM33.3471 26.88C31.8962 26.88 30.6526 26.3791 29.6577 25.3356C28.6627 24.3339 28.1653 22.873 28.1653 21.0365C28.1653 19.2 28.6627 17.7808 29.6577 16.7374C30.6526 15.7356 31.8962 15.193 33.3471 15.193C34.7566 15.193 36.0002 15.7356 36.9951 16.7374C37.99 17.7808 38.5289 19.2 38.5289 21.0365C38.5289 22.873 37.99 24.3339 36.9951 25.3356C36.0002 26.3791 34.7566 26.88 33.3471 26.88ZM33.3471 10.1426C30.2795 10.1426 27.7093 11.1861 25.678 13.2313C23.6468 15.3182 22.6518 17.9061 22.6518 21.0365C22.6518 24.2087 23.6468 26.7965 25.678 28.8417C27.7093 30.9287 30.2795 31.9304 33.3471 31.9304C36.4148 31.9304 38.9435 30.9287 40.9748 28.8417C43.006 26.7965 44.0424 24.2087 44.0424 21.0365C44.0424 17.9061 43.006 15.3182 40.9748 13.2313C38.9435 11.1861 36.4148 10.1426 33.3471 10.1426ZM52.5608 39.2348V29.3008C53.763 30.9704 55.7113 31.8052 58.4473 31.8052C61.2662 31.8052 63.5877 30.8034 65.3702 28.7582C67.1528 26.7548 68.0648 24.1669 68.0648 20.9948C68.0648 17.8643 67.1942 15.3182 65.536 13.3148C63.8364 11.3113 61.5564 10.3095 58.6546 10.3095C57.1622 10.3095 55.8771 10.6017 54.7993 11.1861C53.68 11.7704 52.8924 12.4382 52.395 13.273V10.7687H47.0473V39.2348H52.5608ZM62.6342 21.0365C62.6342 22.8313 62.1368 24.2504 61.1833 25.2939C60.2299 26.3374 59.0277 26.8382 57.5768 26.8382C56.0844 26.8382 54.8822 26.3374 53.9288 25.2521C52.9339 24.2087 52.4779 22.7895 52.4779 21.0365C52.4779 19.2834 52.9339 17.9061 53.9288 16.8626C54.8822 15.8191 56.0844 15.2765 57.5768 15.2765C59.0277 15.2765 60.2299 15.8191 61.1833 16.8208C62.1368 17.8643 62.6342 19.2834 62.6342 21.0365ZM78.1301 39.4017L90.9396 10.7687H85.053L80.037 22.7895L74.6065 10.7687H68.4298L77.0938 28.7165L72.285 39.4017H78.1301Z" fill="#160647"/>
<path d="M92.8628 27.5059C92.8628 28.6815 93.267 29.6311 94.0753 30.445C94.8837 31.2589 95.8268 31.6207 96.9495 31.6207C98.0722 31.6207 99.0603 31.2589 99.8686 30.445C100.677 29.6311 101.081 28.6815 101.081 27.5059C101.081 26.3755 100.677 25.4259 99.8686 24.612C99.0603 23.7981 98.0722 23.3911 96.9495 23.3911C95.8268 23.3911 94.8837 23.7981 94.0753 24.612C93.267 25.4259 92.8628 26.3755 92.8628 27.5059Z" fill="#47BAB7"/>
<path d="M104.175 25.7114C104.175 27.381 104.797 28.8419 106.082 30.0523C107.367 31.3045 109.067 31.8888 111.181 31.8888C113.876 31.8888 115.865 30.8871 117.192 28.8419C117.192 29.8853 117.233 30.7201 117.399 31.3045H122.457C122.291 30.3862 122.208 29.301 122.208 28.0488V17.948C122.208 15.694 121.462 13.8158 120.052 12.3549C118.601 10.894 116.363 10.1427 113.337 10.1427C110.767 10.1427 108.735 10.8523 107.201 12.188C105.626 13.5653 104.756 15.1514 104.59 16.9045L109.481 17.948C109.564 17.0297 109.937 16.2366 110.601 15.5688C111.264 14.9427 112.217 14.6088 113.378 14.6088C114.456 14.6088 115.327 14.8593 115.907 15.3601C116.487 15.861 116.819 16.5288 116.819 17.2801C116.819 18.1149 116.28 18.6158 115.285 18.741L110.269 19.4923C108.445 19.7845 106.994 20.4523 105.875 21.4958C104.714 22.581 104.175 23.9584 104.175 25.7114ZM112.342 27.7566C111.513 27.7566 110.849 27.548 110.393 27.0888C109.896 26.6297 109.689 26.0453 109.689 25.3775C109.689 23.9166 110.518 23.0401 112.217 22.7897L116.819 22.0801V22.9984C116.819 24.7097 116.363 25.9201 115.534 26.6714C114.705 27.4227 113.627 27.7566 112.342 27.7566ZM131.932 31.3045V10.7688H126.418V31.3045H131.932ZM125.755 4.04882C125.755 4.96708 126.087 5.76013 126.75 6.42795C127.413 7.09578 128.201 7.42969 129.154 7.42969C130.066 7.42969 130.895 7.09578 131.559 6.42795C132.222 5.76013 132.554 4.96708 132.554 4.04882C132.554 3.08882 132.222 2.25404 131.559 1.58621C130.895 0.918386 130.066 0.584473 129.154 0.584473C128.201 0.584473 127.413 0.960125 126.75 1.62795C126.087 2.29578 125.755 3.13056 125.755 4.04882Z" fill="#160248"/>
</svg>
