<svg width="96" height="96" viewBox="0 0 96 96" fill="none" xmlns="http://www.w3.org/2000/svg">
<g opacity="0.6" filter="url(#filter0_f_74_774)">
<rect x="16" y="16" width="64" height="64" rx="12" fill="url(#paint0_radial_74_774)"/>
<rect x="16" y="16" width="64" height="64" rx="12" fill="url(#paint1_radial_74_774)"/>
</g>
<mask id="mask0_74_774" style="mask-type:alpha" maskUnits="userSpaceOnUse" x="16" y="10" width="64" height="64">
<rect x="16" y="10" width="64" height="64" rx="12" fill="white"/>
</mask>
<g mask="url(#mask0_74_774)">
<g filter="url(#filter1_b_74_774)">
<rect x="16" y="10" width="64" height="64" rx="12" fill="url(#paint2_linear_74_774)"/>
</g>
<rect x="62" y="56" width="17" height="18" fill="#0066FF" fill-opacity="0.08"/>
<rect x="17" y="28" width="17" height="28" fill="#0066FF" fill-opacity="0.1"/>
<rect x="17" y="11" width="17" height="17" fill="#0066FF" fill-opacity="0.05"/>
<path d="M34 10V73" stroke="#FBFCFE" stroke-opacity="0.9"/>
<path d="M62 11V74" stroke="#FBFCFE" stroke-opacity="0.9"/>
<path d="M80 28L16 28" stroke="#FBFCFE" stroke-opacity="0.9"/>
<path d="M80 56L16 56" stroke="#FBFCFE" stroke-opacity="0.9"/>
<g filter="url(#filter2_b_74_774)">
<rect x="17" y="11" width="62" height="62" rx="11" stroke="white" stroke-opacity="0.8" stroke-width="2"/>
</g>
<g filter="url(#filter3_dd_74_774)">
<g filter="url(#filter4_i_74_774)">
<path d="M31.4223 48.1794C29.8074 46.109 29 45.0738 29 42C29 38.9262 29.8074 37.891 31.4223 35.8206C34.6467 31.6867 40.0544 27 48 27C55.9456 27 61.3533 31.6867 64.5777 35.8206C66.1926 37.891 67 38.9262 67 42C67 45.0738 66.1926 46.109 64.5777 48.1794C61.3533 52.3133 55.9456 57 48 57C40.0544 57 34.6467 52.3133 31.4223 48.1794Z" stroke="#0066FF" stroke-width="3" stroke-linecap="round" stroke-linejoin="round"/>
</g>
<g filter="url(#filter5_i_74_774)">
<path d="M54 42C54 45.3137 51.3137 48 48 48C44.6863 48 42 45.3137 42 42C42 38.6863 44.6863 36 48 36C51.3137 36 54 38.6863 54 42Z" stroke="#0066FF" stroke-width="3" stroke-linecap="round" stroke-linejoin="round"/>
</g>
</g>
</g>
<defs>
<filter id="filter0_f_74_774" x="0" y="0" width="96" height="96" filterUnits="userSpaceOnUse" color-interpolation-filters="sRGB">
<feFlood flood-opacity="0" result="BackgroundImageFix"/>
<feBlend mode="normal" in="SourceGraphic" in2="BackgroundImageFix" result="shape"/>
<feGaussianBlur stdDeviation="8" result="effect1_foregroundBlur_74_774"/>
</filter>
<filter id="filter1_b_74_774" x="-1" y="-7" width="98" height="98" filterUnits="userSpaceOnUse" color-interpolation-filters="sRGB">
<feFlood flood-opacity="0" result="BackgroundImageFix"/>
<feGaussianBlur in="BackgroundImageFix" stdDeviation="8.5"/>
<feComposite in2="SourceAlpha" operator="in" result="effect1_backgroundBlur_74_774"/>
<feBlend mode="normal" in="SourceGraphic" in2="effect1_backgroundBlur_74_774" result="shape"/>
</filter>
<filter id="filter2_b_74_774" x="-14" y="-20" width="124" height="124" filterUnits="userSpaceOnUse" color-interpolation-filters="sRGB">
<feFlood flood-opacity="0" result="BackgroundImageFix"/>
<feGaussianBlur in="BackgroundImageFix" stdDeviation="15"/>
<feComposite in2="SourceAlpha" operator="in" result="effect1_backgroundBlur_74_774"/>
<feBlend mode="normal" in="SourceGraphic" in2="effect1_backgroundBlur_74_774" result="shape"/>
</filter>
<filter id="filter3_dd_74_774" x="21.5" y="23.5" width="53" height="45" filterUnits="userSpaceOnUse" color-interpolation-filters="sRGB">
<feFlood flood-opacity="0" result="BackgroundImageFix"/>
<feColorMatrix in="SourceAlpha" type="matrix" values="0 0 0 0 0 0 0 0 0 0 0 0 0 0 0 0 0 0 127 0" result="hardAlpha"/>
<feOffset dy="4"/>
<feGaussianBlur stdDeviation="3"/>
<feColorMatrix type="matrix" values="0 0 0 0 0 0 0 0 0 0.4 0 0 0 0 1 0 0 0 0.5 0"/>
<feBlend mode="normal" in2="BackgroundImageFix" result="effect1_dropShadow_74_774"/>
<feColorMatrix in="SourceAlpha" type="matrix" values="0 0 0 0 0 0 0 0 0 0 0 0 0 0 0 0 0 0 127 0" result="hardAlpha"/>
<feOffset dy="1"/>
<feGaussianBlur stdDeviation="1"/>
<feColorMatrix type="matrix" values="0 0 0 0 0 0 0 0 0 0.4 0 0 0 0 1 0 0 0 0.5 0"/>
<feBlend mode="normal" in2="effect1_dropShadow_74_774" result="effect2_dropShadow_74_774"/>
<feBlend mode="normal" in="SourceGraphic" in2="effect2_dropShadow_74_774" result="shape"/>
</filter>
<filter id="filter4_i_74_774" x="27.5" y="25.5" width="41" height="33" filterUnits="userSpaceOnUse" color-interpolation-filters="sRGB">
<feFlood flood-opacity="0" result="BackgroundImageFix"/>
<feBlend mode="normal" in="SourceGraphic" in2="BackgroundImageFix" result="shape"/>
<feColorMatrix in="SourceAlpha" type="matrix" values="0 0 0 0 0 0 0 0 0 0 0 0 0 0 0 0 0 0 127 0" result="hardAlpha"/>
<feOffset/>
<feGaussianBlur stdDeviation="1"/>
<feComposite in2="hardAlpha" operator="arithmetic" k2="-1" k3="1"/>
<feColorMatrix type="matrix" values="0 0 0 0 0.7875 0 0 0 0 0.8725 0 0 0 0 1 0 0 0 1 0"/>
<feBlend mode="normal" in2="shape" result="effect1_innerShadow_74_774"/>
</filter>
<filter id="filter5_i_74_774" x="40.5" y="34.5" width="15" height="15" filterUnits="userSpaceOnUse" color-interpolation-filters="sRGB">
<feFlood flood-opacity="0" result="BackgroundImageFix"/>
<feBlend mode="normal" in="SourceGraphic" in2="BackgroundImageFix" result="shape"/>
<feColorMatrix in="SourceAlpha" type="matrix" values="0 0 0 0 0 0 0 0 0 0 0 0 0 0 0 0 0 0 127 0" result="hardAlpha"/>
<feOffset/>
<feGaussianBlur stdDeviation="1"/>
<feComposite in2="hardAlpha" operator="arithmetic" k2="-1" k3="1"/>
<feColorMatrix type="matrix" values="0 0 0 0 0.7875 0 0 0 0 0.8725 0 0 0 0 1 0 0 0 1 0"/>
<feBlend mode="normal" in2="shape" result="effect1_innerShadow_74_774"/>
</filter>
<radialGradient id="paint0_radial_74_774" cx="0" cy="0" r="1" gradientUnits="userSpaceOnUse" gradientTransform="translate(16 80) rotate(-45) scale(65.7609)">
<stop stop-color="#0066FF"/>
<stop offset="1" stop-color="#0066FF" stop-opacity="0"/>
</radialGradient>
<radialGradient id="paint1_radial_74_774" cx="0" cy="0" r="1" gradientUnits="userSpaceOnUse" gradientTransform="translate(80 80) rotate(-135) scale(62.9325)">
<stop stop-color="#26DEE3"/>
<stop offset="1" stop-color="#26DEE3" stop-opacity="0"/>
</radialGradient>
<linearGradient id="paint2_linear_74_774" x1="48" y1="10" x2="48" y2="74" gradientUnits="userSpaceOnUse">
<stop stop-color="#EDF4FF"/>
<stop offset="1" stop-color="#EDF4FF" stop-opacity="0"/>
</linearGradient>
</defs>
</svg>
