<svg width="169" height="40" viewBox="0 0 169 40" fill="none" xmlns="http://www.w3.org/2000/svg">
<rect width="169" height="40" rx="20" fill="#E6F0FF"/>
<path d="M19.6277 14.5071C20.6833 12.6135 21.211 11.6667 22.0001 11.6667C22.7891 11.6667 23.3169 12.6135 24.3724 14.5071L24.6455 14.9969C24.9455 15.535 25.0955 15.8041 25.3293 15.9816C25.5631 16.1591 25.8544 16.225 26.4368 16.3568L26.9671 16.4768C29.0169 16.9405 30.0417 17.1724 30.2856 17.9565C30.5294 18.7406 29.8307 19.5576 28.4333 21.1917L28.0718 21.6144C27.6747 22.0788 27.4762 22.3109 27.3869 22.5982C27.2975 22.8854 27.3276 23.1952 27.3876 23.8147L27.4423 24.3787C27.6535 26.5589 27.7591 27.649 27.1208 28.1336C26.4824 28.6182 25.5229 28.1764 23.6037 27.2927L23.1072 27.0641C22.5618 26.813 22.2891 26.6875 22.0001 26.6875C21.711 26.6875 21.4384 26.813 20.893 27.0641L20.3965 27.2927C18.4773 28.1764 17.5177 28.6182 16.8794 28.1336C16.241 27.649 16.3466 26.5589 16.5579 24.3787L16.6126 23.8147C16.6726 23.1952 16.7026 22.8854 16.6133 22.5982C16.524 22.3109 16.3254 22.0788 15.9283 21.6144L15.5668 21.1917C14.1695 19.5576 13.4708 18.7406 13.7146 17.9565C13.9584 17.1724 14.9833 16.9405 17.033 16.4768L17.5633 16.3568C18.1458 16.225 18.437 16.1591 18.6709 15.9816C18.9047 15.8041 19.0547 15.535 19.3546 14.9969L19.6277 14.5071Z" fill="#0066FF"/>
<path d="M43.6277 14.5071C44.6833 12.6135 45.211 11.6667 46.0001 11.6667C46.7891 11.6667 47.3169 12.6135 48.3724 14.5071L48.6455 14.9969C48.9455 15.535 49.0955 15.8041 49.3293 15.9816C49.5631 16.1591 49.8544 16.225 50.4368 16.3568L50.9671 16.4768C53.0169 16.9405 54.0417 17.1724 54.2856 17.9565C54.5294 18.7406 53.8307 19.5576 52.4333 21.1917L52.0718 21.6144C51.6747 22.0788 51.4762 22.3109 51.3869 22.5982C51.2975 22.8854 51.3276 23.1952 51.3876 23.8147L51.4423 24.3787C51.6535 26.5589 51.7591 27.649 51.1208 28.1336C50.4824 28.6182 49.5229 28.1764 47.6037 27.2927L47.1072 27.0641C46.5618 26.813 46.2891 26.6875 46.0001 26.6875C45.711 26.6875 45.4384 26.813 44.893 27.0641L44.3965 27.2927C42.4773 28.1764 41.5177 28.6182 40.8794 28.1336C40.241 27.649 40.3466 26.5589 40.5579 24.3787L40.6126 23.8147C40.6726 23.1952 40.7026 22.8854 40.6133 22.5982C40.524 22.3109 40.3254 22.0788 39.9283 21.6144L39.5668 21.1917C38.1695 19.5576 37.4708 18.7406 37.7146 17.9565C37.9584 17.1724 38.9833 16.9405 41.033 16.4768L41.5633 16.3568C42.1458 16.225 42.437 16.1591 42.6709 15.9816C42.9047 15.8041 43.0547 15.535 43.3546 14.9969L43.6277 14.5071Z" fill="#0066FF"/>
<path d="M67.6277 14.5071C68.6833 12.6135 69.211 11.6667 70.0001 11.6667C70.7891 11.6667 71.3169 12.6135 72.3724 14.5071L72.6455 14.9969C72.9455 15.535 73.0955 15.8041 73.3293 15.9816C73.5631 16.1591 73.8544 16.225 74.4368 16.3568L74.9671 16.4768C77.0169 16.9405 78.0417 17.1724 78.2856 17.9565C78.5294 18.7406 77.8307 19.5576 76.4333 21.1917L76.0718 21.6144C75.6747 22.0788 75.4762 22.3109 75.3869 22.5982C75.2975 22.8854 75.3276 23.1952 75.3876 23.8147L75.4423 24.3787C75.6535 26.5589 75.7591 27.649 75.1208 28.1336C74.4824 28.6182 73.5229 28.1764 71.6037 27.2927L71.1072 27.0641C70.5618 26.813 70.2891 26.6875 70.0001 26.6875C69.711 26.6875 69.4384 26.813 68.893 27.0641L68.3965 27.2927C66.4773 28.1764 65.5177 28.6182 64.8794 28.1336C64.241 27.649 64.3466 26.5589 64.5579 24.3787L64.6126 23.8147C64.6726 23.1952 64.7026 22.8854 64.6133 22.5982C64.524 22.3109 64.3254 22.0788 63.9283 21.6144L63.5668 21.1917C62.1695 19.5576 61.4708 18.7406 61.7146 17.9565C61.9584 17.1724 62.9833 16.9405 65.033 16.4768L65.5633 16.3568C66.1458 16.225 66.437 16.1591 66.6709 15.9816C66.9047 15.8041 67.0547 15.535 67.3546 14.9969L67.6277 14.5071Z" fill="#0066FF"/>
<path d="M91.6277 14.5071C92.6833 12.6135 93.211 11.6667 94.0001 11.6667C94.7891 11.6667 95.3169 12.6135 96.3724 14.5071L96.6455 14.9969C96.9455 15.535 97.0955 15.8041 97.3293 15.9816C97.5631 16.1591 97.8544 16.225 98.4368 16.3568L98.9671 16.4768C101.017 16.9405 102.042 17.1724 102.286 17.9565C102.529 18.7406 101.831 19.5576 100.433 21.1917L100.072 21.6144C99.6747 22.0788 99.4762 22.3109 99.3869 22.5982C99.2975 22.8854 99.3276 23.1952 99.3876 23.8147L99.4423 24.3787C99.6535 26.5589 99.7591 27.649 99.1208 28.1336C98.4824 28.6182 97.5229 28.1764 95.6037 27.2927L95.1072 27.0641C94.5618 26.813 94.2891 26.6875 94.0001 26.6875C93.711 26.6875 93.4384 26.813 92.893 27.0641L92.3965 27.2927C90.4773 28.1764 89.5177 28.6182 88.8794 28.1336C88.241 27.649 88.3466 26.5589 88.5579 24.3787L88.6126 23.8147C88.6726 23.1952 88.7026 22.8854 88.6133 22.5982C88.524 22.3109 88.3254 22.0788 87.9283 21.6144L87.5668 21.1917C86.1695 19.5576 85.4708 18.7406 85.7146 17.9565C85.9584 17.1724 86.9833 16.9405 89.033 16.4768L89.5633 16.3568C90.1458 16.225 90.437 16.1591 90.6709 15.9816C90.9047 15.8041 91.0547 15.535 91.3546 14.9969L91.6277 14.5071Z" fill="#0066FF"/>
<path d="M115.628 14.5071C116.683 12.6135 117.211 11.6667 118 11.6667C118.789 11.6667 119.317 12.6135 120.372 14.5071L120.646 14.9969C120.945 15.535 121.095 15.8041 121.329 15.9816C121.563 16.1591 121.854 16.225 122.437 16.3568L122.967 16.4768C125.017 16.9405 126.042 17.1724 126.286 17.9565C126.529 18.7406 125.831 19.5576 124.433 21.1917L124.072 21.6144C123.675 22.0788 123.476 22.3109 123.387 22.5982C123.298 22.8854 123.328 23.1952 123.388 23.8147L123.442 24.3787C123.654 26.5589 123.759 27.649 123.121 28.1336C122.482 28.6182 121.523 28.1764 119.604 27.2927L119.107 27.0641C118.562 26.813 118.289 26.6875 118 26.6875C117.711 26.6875 117.438 26.813 116.893 27.0641L116.396 27.2927C114.477 28.1764 113.518 28.6182 112.879 28.1336C112.241 27.649 112.347 26.5589 112.558 24.3787L112.613 23.8147C112.673 23.1952 112.703 22.8854 112.613 22.5982C112.524 22.3109 112.325 22.0788 111.928 21.6144L111.567 21.1917C110.169 19.5576 109.471 18.7406 109.715 17.9565C109.958 17.1724 110.983 16.9405 113.033 16.4768L113.563 16.3568C114.146 16.225 114.437 16.1591 114.671 15.9816C114.905 15.8041 115.055 15.535 115.355 14.9969L115.628 14.5071Z" fill="#0066FF"/>
<path d="M136.72 26.192C135.909 26.192 135.195 26.032 134.576 25.712C133.968 25.3813 133.493 24.9227 133.152 24.336C132.821 23.7387 132.656 23.0453 132.656 22.256H134.672C134.672 22.9173 134.859 23.4347 135.232 23.808C135.605 24.1813 136.117 24.368 136.768 24.368C137.227 24.368 137.621 24.2773 137.952 24.096C138.293 23.904 138.555 23.632 138.736 23.28C138.928 22.928 139.024 22.5173 139.024 22.048C139.024 21.6 138.933 21.2053 138.752 20.864C138.581 20.512 138.331 20.24 138 20.048C137.669 19.856 137.269 19.76 136.8 19.76C136.352 19.76 135.936 19.8613 135.552 20.064C135.179 20.256 134.885 20.5067 134.672 20.816L132.864 20.432L134.304 14.304H140.4V16.192H135.248L135.936 15.552L134.992 19.28L134.304 19.568C134.56 19.0773 134.944 18.704 135.456 18.448C135.979 18.1813 136.565 18.048 137.216 18.048C137.995 18.048 138.672 18.2133 139.248 18.544C139.835 18.8747 140.288 19.3333 140.608 19.92C140.939 20.496 141.104 21.168 141.104 21.936C141.104 22.7787 140.917 23.52 140.544 24.16C140.181 24.8 139.669 25.3013 139.008 25.664C138.357 26.016 137.595 26.192 136.72 26.192ZM143.664 26.192C143.312 26.192 143.008 26.0693 142.752 25.824C142.496 25.5787 142.368 25.28 142.368 24.928C142.368 24.576 142.496 24.2773 142.752 24.032C143.008 23.776 143.312 23.648 143.664 23.648C144.016 23.648 144.32 23.776 144.576 24.032C144.832 24.2773 144.96 24.576 144.96 24.928C144.96 25.28 144.832 25.5787 144.576 25.824C144.32 26.0693 144.016 26.192 143.664 26.192ZM146.11 20.176C146.11 18.96 146.313 17.8987 146.718 16.992C147.134 16.0853 147.71 15.376 148.446 14.864C149.193 14.3413 150.062 14.08 151.054 14.08C152.057 14.08 152.926 14.3413 153.662 14.864C154.409 15.376 154.985 16.0853 155.39 16.992C155.806 17.8987 156.014 18.96 156.014 20.176C156.014 21.3813 155.817 22.4373 155.422 23.344C155.027 24.2507 154.462 24.9547 153.726 25.456C152.99 25.9573 152.099 26.208 151.054 26.208C150.03 26.208 149.145 25.9573 148.398 25.456C147.662 24.9547 147.097 24.2507 146.702 23.344C146.307 22.4373 146.11 21.3813 146.11 20.176ZM148.126 20.176C148.126 21.072 148.243 21.84 148.478 22.48C148.713 23.1093 149.049 23.5893 149.486 23.92C149.923 24.24 150.446 24.4 151.054 24.4C151.683 24.4 152.211 24.24 152.638 23.92C153.075 23.5893 153.411 23.1093 153.646 22.48C153.881 21.84 153.998 21.072 153.998 20.176C153.998 19.248 153.881 18.4693 153.646 17.84C153.411 17.2 153.075 16.7147 152.638 16.384C152.211 16.0533 151.683 15.888 151.054 15.888C150.446 15.888 149.923 16.0533 149.486 16.384C149.049 16.7147 148.713 17.2 148.478 17.84C148.243 18.4693 148.126 19.248 148.126 20.176Z" fill="#021F49"/>
</svg>
