<svg width="128" height="70" viewBox="0 0 128 70" fill="none" xmlns="http://www.w3.org/2000/svg">
<path fill-rule="evenodd" clip-rule="evenodd" d="M85.3783 20.7804C85.3783 32.2568 75.8948 41.5607 64.1972 41.5607C52.4996 41.5607 43.0161 32.2568 43.0161 20.7804C43.0161 9.30395 52.4996 0 64.1972 0C75.8948 0 85.3783 9.30395 85.3783 20.7804Z" fill="#15C39A"/>
<path fill-rule="evenodd" clip-rule="evenodd" d="M66.9652 25.2674C67.09 25.9472 67.7419 26.4136 68.4473 26.4136H70.666L71.952 26.2382C69.8937 29.2001 66.3207 30.5627 62.4136 29.9618C59.2327 29.472 56.5002 27.3595 55.3463 24.4107C52.7297 17.7164 57.712 11.3261 64.206 11.3261C67.5904 11.3261 70.5576 13.2691 72.2594 15.6155C72.7109 16.2544 73.6078 16.4883 74.2598 16.0453C74.5559 15.8479 74.7648 15.5471 74.8442 15.2037C74.9236 14.8604 74.8676 14.5002 74.6874 14.196C73.4813 12.3467 71.7919 10.8511 69.7964 9.86595C67.801 8.88077 65.573 8.44234 63.3462 8.59663C57.1536 9.00452 52.1416 13.9767 51.7852 20.0555C51.3724 27.1314 57.0912 32.9062 64.206 32.9062C65.98 32.9134 67.7347 32.5437 69.3504 31.8224C70.966 31.101 72.4045 30.045 73.5677 28.7264L73.2974 30.2089V31.548C73.2974 32.2381 73.7727 32.8784 74.4662 33.0012C74.6732 33.0396 74.8863 33.0327 75.0904 32.9809C75.2944 32.9292 75.4843 32.8338 75.6468 32.7017C75.8092 32.5696 75.9401 32.4039 76.0302 32.2164C76.1202 32.0289 76.1673 31.8242 76.168 31.6167V23.5964H68.376C68.1652 23.5961 67.957 23.6415 67.7661 23.7295C67.5752 23.8175 67.4064 23.9458 67.2716 24.1054C67.1369 24.265 67.0396 24.4519 66.9866 24.6527C66.9337 24.8536 66.9264 25.0635 66.9652 25.2674Z" fill="white"/>
<path fill-rule="evenodd" clip-rule="evenodd" d="M1.7472 68.6998C1.08003 68.4677 0.643234 67.9764 0.643234 67.3212C0.643234 66.5281 1.36126 65.8743 2.23486 65.8743C2.49216 65.8743 2.69859 65.9207 2.8781 65.9903C4.06945 66.4916 5.36728 66.747 6.67916 66.7383C9.35232 66.7383 10.6104 65.5713 10.6104 63.3273V62.7199C9.45404 63.9825 8.196 64.7537 6.11521 64.7537C2.90353 64.7537 0 62.6271 0 58.9116V58.8666C0 55.1279 2.95439 53.0259 6.11521 53.0259C8.24686 53.0259 9.5049 53.8449 10.558 54.8959V54.8713C10.558 53.9131 11.4316 53.1201 12.5116 53.1201C13.5887 53.1201 14.4623 53.9131 14.4623 54.8945V62.9546C14.4623 65.1973 13.8729 66.8311 12.7166 67.8822C11.4316 69.0519 9.45404 69.5652 6.78238 69.5652C5.05821 69.579 3.34772 69.285 1.7472 68.6998ZM10.6104 58.913V58.8666C10.6104 57.1604 9.14439 55.9687 7.2446 55.9687C5.34482 55.9687 3.90578 57.1604 3.90578 58.8666V58.913C3.90578 60.641 5.34482 61.8094 7.2446 61.8094C9.14439 61.8094 10.6104 60.6178 10.6104 58.913ZM16.6732 54.8945C16.6732 53.9131 17.5468 53.1201 18.6254 53.1201C19.7054 53.1201 20.5775 53.9131 20.5775 54.8945V55.4542C21.1429 54.2407 22.0674 53.1201 23.2252 53.1201C24.4324 53.1201 25.125 53.8435 25.125 54.8481C25.125 55.7817 24.4578 56.3428 23.6605 56.5065C21.683 56.9283 20.579 58.3056 20.579 60.828V64.1449C20.579 65.1263 19.7054 65.9207 18.6254 65.9207C18.3695 65.9213 18.116 65.8758 17.8793 65.7869C17.6427 65.698 17.4276 65.5674 17.2463 65.4026C17.065 65.2378 16.9211 65.042 16.8228 64.8265C16.7244 64.6109 16.6736 64.3798 16.6732 64.1463V54.8945ZM24.6628 62.1834V62.137C24.6628 59.403 26.9485 58.1418 30.2125 58.1418C31.5992 58.1418 32.6015 58.352 33.5783 58.655V58.4448C33.5783 56.9747 32.576 56.1558 30.6239 56.1558C29.7101 56.1468 28.8001 56.2651 27.9253 56.5065C27.7448 56.5676 27.5539 56.5995 27.3614 56.6007C27.1502 56.6044 26.9404 56.5695 26.7442 56.4983C26.548 56.4271 26.3693 56.3209 26.2186 56.1859C26.0679 56.051 25.9482 55.8899 25.8665 55.7122C25.7848 55.5346 25.7428 55.3438 25.7428 55.1511C25.7428 54.5205 26.1766 53.9841 26.7959 53.7725C28.0285 53.3521 29.3644 53.1201 31.1879 53.1201C33.3195 53.1201 34.8618 53.6333 35.8371 54.5205C36.8648 55.4542 37.3285 56.8341 37.3285 58.5158V64.2145C37.3285 65.1727 36.4803 65.9207 35.4272 65.9207C34.2963 65.9207 33.5514 65.1973 33.5514 64.4493V64.4247C32.6015 65.3829 31.2926 66.0135 29.3898 66.0135C26.7959 66.0135 24.6628 64.6595 24.6628 62.1834ZM33.6292 61.3645V60.7352C32.844 60.4204 31.9946 60.2608 31.137 60.267C29.4661 60.267 28.4399 60.8744 28.4399 61.9964V62.0428C28.4399 63.0011 29.3135 63.5621 30.5716 63.5621C32.3965 63.5621 33.6292 62.6503 33.6292 61.3645ZM39.4093 54.8945C39.4093 53.9131 40.2829 53.1201 41.3629 53.1201C42.4415 53.1201 43.3151 53.9131 43.3151 54.8945V55.0351C44.2126 53.9841 45.3958 53.0259 47.3734 53.0259C49.1715 53.0259 50.5327 53.7493 51.2523 55.0119C52.4595 53.7275 53.9 53.0259 55.7728 53.0259C58.6764 53.0259 60.4251 54.6147 60.4251 57.6285V64.1449C60.4251 65.1263 59.55 65.9207 58.4714 65.9207C58.2155 65.9213 57.9619 65.8758 57.7252 65.7869C57.4885 65.698 57.2733 65.5675 57.0919 65.4027C56.9105 65.2379 56.7664 65.0422 56.6679 64.8266C56.5694 64.611 56.5184 64.3798 56.5178 64.1463V58.7956C56.5178 57.114 55.6951 56.2499 54.2321 56.2499C52.7676 56.2499 51.8686 57.114 51.8686 58.7956V64.1463C51.8686 65.1263 50.9965 65.9207 49.9164 65.9207C49.3997 65.9214 48.9039 65.7349 48.5378 65.4022C48.1718 65.0695 47.9655 64.6177 47.9643 64.1463V58.7956C47.9643 57.114 47.1416 56.2499 45.6786 56.2499C44.2126 56.2499 43.3151 57.114 43.3151 58.7956V64.1463C43.3151 65.1263 42.4415 65.9207 41.3629 65.9207C41.1069 65.9214 40.8532 65.8761 40.6164 65.7873C40.3796 65.6984 40.1644 65.5679 39.9829 65.4031C39.8015 65.2383 39.6574 65.0424 39.559 64.8268C39.4605 64.6111 39.4097 64.3799 39.4093 64.1463V54.8945ZM62.5313 54.8945C62.5313 53.9131 63.4049 53.1201 64.4834 53.1201C65.5635 53.1201 66.4371 53.9131 66.4371 54.8945V55.0351C67.3346 53.9841 68.5164 53.0259 70.4954 53.0259C72.2935 53.0259 73.6548 53.7493 74.3743 55.0119C75.5815 53.7275 77.0205 53.0259 78.8949 53.0259C81.7984 53.0259 83.5456 54.6147 83.5456 57.6285V64.1449C83.5456 65.1263 82.672 65.9207 81.592 65.9207C81.0753 65.9214 80.5794 65.7349 80.2133 65.4022C79.8473 65.0695 79.641 64.6177 79.6398 64.1463V58.7956C79.6398 57.114 78.8171 56.2499 77.3541 56.2499C75.8881 56.2499 74.9906 57.114 74.9906 58.7956V64.1463C74.9906 65.1263 74.117 65.9207 73.0384 65.9207C72.7825 65.9213 72.529 65.8758 72.2924 65.7869C72.0558 65.698 71.8407 65.5674 71.6594 65.4026C71.4781 65.2378 71.3342 65.042 71.2358 64.8265C71.1375 64.6109 71.0867 64.3798 71.0863 64.1463V58.7956C71.0863 57.114 70.2636 56.2499 68.7991 56.2499C67.3346 56.2499 66.4356 57.114 66.4356 58.7956V64.1463C66.4356 65.1263 65.5635 65.9207 64.4834 65.9207C64.2275 65.9213 63.974 65.8758 63.7374 65.7869C63.5008 65.698 63.2857 65.5674 63.1044 65.4026C62.9231 65.2378 62.7792 65.042 62.6808 64.8265C62.5825 64.6109 62.5317 64.3798 62.5313 64.1463V54.8945ZM84.8306 62.1834V62.137C84.8306 59.403 87.1178 58.1418 90.3803 58.1418C91.526 58.1323 92.6646 58.306 93.7446 58.655V58.4448C93.7446 56.9747 92.7423 56.1558 90.7902 56.1558C89.7117 56.1558 88.8381 56.2963 88.0931 56.5065C87.9125 56.5676 87.7217 56.5995 87.5292 56.6007C87.3178 56.6047 87.1078 56.5702 86.9113 56.4991C86.7149 56.428 86.5359 56.3219 86.385 56.1868C86.2341 56.0518 86.1143 55.8906 86.0326 55.7128C85.9508 55.5349 85.9089 55.344 85.9091 55.1511C85.9091 54.5205 86.3474 53.9841 86.9622 53.7725C88.1963 53.3521 89.5322 53.1201 91.3556 53.1201C93.4888 53.1201 95.0296 53.6333 96.0049 54.5205C97.0326 55.4542 97.4948 56.8341 97.4948 58.5158V64.2145C97.4948 64.4409 97.4455 64.665 97.3496 64.8738C97.2538 65.0826 97.1134 65.2719 96.9366 65.4307C96.7598 65.5895 96.5501 65.7146 96.3198 65.7988C96.0894 65.8829 95.8431 65.9243 95.595 65.9207C94.4641 65.9207 93.7192 65.1973 93.7192 64.4493V64.4247C92.7693 65.3829 91.4574 66.0135 89.5576 66.0135C86.9622 66.0135 84.8306 64.6595 84.8306 62.1834ZM93.7969 61.3645V60.7352C93.0117 60.4205 92.1624 60.2609 91.3048 60.267C89.6339 60.267 88.6077 60.8744 88.6077 61.9964V62.0428C88.6077 63.0011 89.4798 63.5621 90.7393 63.5621C92.5628 63.5621 93.7969 62.6503 93.7969 61.3645ZM99.5771 54.8945C99.5771 53.9131 100.451 53.1201 101.529 53.1201C102.609 53.1201 103.481 53.9131 103.481 54.8945V55.4542C104.047 54.2407 104.971 53.1201 106.129 53.1201C107.335 53.1201 108.029 53.8435 108.029 54.8481C108.029 55.7817 107.36 56.3428 106.564 56.5065C104.587 56.9283 103.481 58.3056 103.481 60.828V64.1449C103.481 65.1263 102.609 65.9207 101.529 65.9207C101.013 65.9214 100.517 65.7349 100.151 65.4022C99.7846 65.0695 99.5783 64.6177 99.5771 64.1463V54.8945ZM109.211 50.3628C109.211 49.3801 110.084 48.5884 111.163 48.5884C112.243 48.5884 113.116 49.3801 113.116 50.3628V64.1449C113.116 65.1263 112.243 65.9207 111.163 65.9207C110.646 65.9214 110.15 65.7349 109.784 65.4022C109.418 65.0695 109.212 64.6177 109.211 64.1463V50.3628ZM116.225 69.2608C115.659 69.0752 114.991 68.6534 114.991 67.7907C114.986 67.6028 115.023 67.416 115.098 67.2411C115.174 67.0662 115.286 66.9067 115.43 66.7718C115.573 66.637 115.745 66.5295 115.934 66.4555C116.123 66.3816 116.327 66.3427 116.533 66.3411C116.841 66.3411 117.021 66.3875 117.175 66.4353C117.508 66.5281 117.715 66.5759 117.997 66.5759C118.69 66.5759 119.025 66.4585 119.384 65.8279L119.513 65.5467L114.813 55.6425C114.695 55.3817 114.625 55.105 114.606 54.8235C114.606 53.8203 115.454 53.1201 116.533 53.1201C117.508 53.1201 118.074 53.6101 118.407 54.4509L121.389 61.7398L124.265 54.4741C124.573 53.7275 125.137 53.1201 126.141 53.1201C127.142 53.1201 127.989 53.8203 127.989 54.7553C127.989 55.0351 127.887 55.4323 127.811 55.5961L123.006 66.0845C121.849 68.6302 120.695 69.5884 118.357 69.5884C117.483 69.5884 116.867 69.4724 116.225 69.2608Z" fill="#0E101A"/>
</svg>
