<svg width="127" height="55" viewBox="0 0 127 55" fill="none" xmlns="http://www.w3.org/2000/svg">
<path d="M126.316 47.7639V43.1582H96.3813V47.7639H126.316Z" fill="#3C81D5"/>
<path d="M126.316 30.1277V25.522H120.33V30.1277H126.316Z" fill="#3C81D5"/>
<path d="M123.138 45.6353H126.316V25.99H123.138V45.6353Z" fill="#3C81D5"/>
<path d="M102.269 54.545L97.5881 43.1619L93.2114 43.1582L97.7128 54.6241L102.269 54.545Z" fill="#3C81D5"/>
<path d="M63.2528 0H60.0747V46.0511H63.2528V0Z" fill="#3C81D5"/>
<path d="M2.82067 7.84082H0.293945L0.296336 11.6942H2.82067V7.84082ZM2.82067 16.3566H0.293945V37.6461H2.82067V16.3566Z" fill="black"/>
<path d="M12.9996 16.0679C11.0727 16.0679 9.42979 17.1856 8.4039 19.3642V16.3659H6.34717V37.6554H8.87404V27.0958L8.87643 25.5701C8.87643 21.2271 10.5193 19.3039 12.8624 19.3039C14.7673 19.3039 15.8397 20.819 15.8397 23.8421V37.6554H18.3664V23.6328C18.3664 18.4452 16.1458 16.0679 12.9996 16.0679Z" fill="black"/>
<path d="M32.481 22.8167V22.6038C32.481 18.7681 30.4145 16.0679 26.7566 16.0679C23.412 16.0679 21.1057 18.3388 21.1057 22.0786V22.1212C21.1057 30.8712 30.1892 26.411 30.1892 31.6979V31.7405C30.1892 33.7169 28.8108 34.7175 26.9231 34.7175C24.766 34.7175 23.2945 33.4188 23.2945 30.9031V30.8605L20.8926 30.857V31.0273C20.8926 34.9765 22.8587 37.9535 26.9231 37.9535C30.4855 37.9535 32.863 35.5868 32.863 31.5276V31.485C32.863 22.8947 23.7939 27.0923 23.7939 22.1212V22.0786C23.7939 20.5954 24.5457 19.3039 26.7566 19.3039C28.8353 19.3039 30.0815 20.1519 30.0815 22.7741V22.8167H32.481Z" fill="black"/>
<path d="M40.7895 34.6788C39.1344 34.6788 38.4465 33.8094 38.4465 31.6379V19.6449H42.1753V16.3662H38.4465V11.9771H35.9196V16.3662H33.9951V19.6449H35.9196V32.0602C35.9196 36.0519 37.3397 37.9538 40.2925 37.9538C40.9022 37.9538 41.5779 37.8722 42.3222 37.7125V34.4588C41.7517 34.6042 41.24 34.6788 40.7895 34.6788Z" fill="black"/>
<path d="M49.9155 16.0679C46.3874 16.0679 44.3184 18.5623 44.3184 22.9515V23.1609H46.6763V22.9515C46.6763 20.7019 47.8711 19.3039 49.9155 19.3039C51.9502 19.3039 53.1475 20.2797 53.1475 23.0864V24.9243L49.0488 25.4069C45.43 25.8327 43.8042 27.8658 43.8042 31.8221V31.8647C43.8042 35.3739 45.7974 37.9535 48.8163 37.9535C51.037 37.9535 52.5403 36.8074 53.4266 34.9268V37.6554H55.6718L55.6742 23.0899C55.6742 18.1684 53.4339 16.0679 49.9155 16.0679ZM49.3598 34.6678C47.5063 34.6678 46.4853 33.3904 46.4853 31.5312V31.4886C46.4853 29.977 47.0068 28.4619 49.2079 28.2171L53.1475 27.77V29.0332C53.1475 32.5211 51.7764 34.6678 49.3598 34.6678Z" fill="black"/>
<path d="M75.1631 33.6495C73.6793 33.6495 73.0721 32.8405 73.0721 30.9564V20.5033H76.544V16.3553H73.0721V11.8633H69.0175V16.3553H67.1396V20.5033H69.0175V31.5454C69.0175 35.963 70.5625 37.9855 74.0956 37.9855C74.8595 37.9855 75.6699 37.879 76.6395 37.6484V33.4296C76.0911 33.5715 75.594 33.6495 75.1631 33.6495Z" fill="black"/>
<path d="M88.4215 30.4036C88.1644 32.4402 87.2292 33.7176 85.5545 33.7176C83.8871 33.7176 82.5698 32.2983 82.2785 28.6117L92.1481 28.6081L92.1455 27.2882C92.1284 19.2088 89.2001 16.0225 85.29 16.0225C81.042 16.0225 77.9839 19.6949 77.9839 26.9049V26.9476C77.9839 33.7921 80.8265 37.979 85.4124 37.979C89.5061 37.979 91.7368 34.8743 92.0379 30.5987L92.0575 30.3042H88.4337L88.4215 30.4036ZM85.2558 20.2485C86.8766 20.2485 88.0837 21.689 88.2135 24.8328H82.3103C82.6286 21.5755 83.7328 20.2485 85.2558 20.2485Z" fill="black"/>
<path d="M107.969 37.6528L103.579 26.9335L107.813 16.3633H103.41L100.573 23.8608L97.735 16.3633H93.2715L97.4558 26.6709L93.0781 37.6528H97.5048L100.448 29.8928L103.486 37.6528H107.969Z" fill="black"/>
<path d="M116.501 33.6495C115.018 33.6495 114.411 32.8405 114.411 30.9564V20.5033H117.882V16.3553H114.411V11.8633H110.356V16.3553H108.478V20.5033H110.356V31.5454C110.356 35.963 111.901 37.9855 115.434 37.9855C116.198 37.9855 117.008 37.879 117.978 37.6484V33.4296C117.429 33.5715 116.932 33.6495 116.501 33.6495Z" fill="black"/>
</svg>
