<svg width="159" height="28" viewBox="0 0 159 28" fill="none" xmlns="http://www.w3.org/2000/svg">
<path d="M8.3215 22.48C13.368 22.48 16.184 19.0898 16.184 14.0501V0.702637H12.2528V14.0501C12.2528 16.7685 10.8308 18.4788 8.3215 18.4788C5.81219 18.4788 4.39025 16.7685 4.39025 14.0501V0.702637H0.458984V14.0501C0.458984 19.0898 3.27499 22.48 8.3215 22.48Z" fill="#F16434"/>
<path d="M19.4849 22.0828H23.1093V20.4335C23.4997 20.9527 24.9496 22.4799 27.4309 22.4799C31.6131 22.4799 34.5685 19.0285 34.5685 14.111C34.5685 9.16302 31.8362 5.71162 27.6541 5.71162C25.1448 5.71162 23.6949 7.23878 23.3324 7.78857V0H19.4849V22.0828ZM23.2209 14.1416C23.2209 11.1483 24.8381 9.43792 26.957 9.43792C29.1875 9.43792 30.6932 11.3621 30.6932 14.1416C30.6932 16.9821 29.1318 18.7536 26.957 18.7536C24.615 18.7536 23.2209 16.6767 23.2209 14.1416Z" fill="#F16434"/>
<path d="M35.9937 14.1416C35.9937 18.937 38.977 22.4799 43.661 22.4799C47.2856 22.4799 49.2372 20.0976 49.795 18.9675L47.2578 16.8601C46.8396 17.5319 45.6964 18.8148 43.7168 18.8148C41.5699 18.8148 40.0087 17.2877 39.925 15.1496H50.1853C50.2132 14.8441 50.2132 14.5387 50.2132 14.2333C50.2132 9.01035 47.648 5.71167 43.1313 5.71167C38.977 5.71167 35.9937 9.31579 35.9937 14.1416ZM40.0365 12.4007C40.2037 10.5681 41.3748 9.16307 43.1871 9.16307C44.9436 9.16307 46.2262 10.4459 46.3098 12.4007H40.0365Z" fill="#F16434"/>
<path d="M60.1275 5.71167C58.2037 5.71167 56.7539 6.84176 56.1126 8.43003V6.10872H52.3486V22.0829H56.1963V15.119C56.1963 11.9425 57.2558 9.98773 60.1275 9.98773V5.71167Z" fill="#F16434"/>
<path d="M66.8568 22.4799C70.0074 22.4799 72.461 20.5252 72.461 17.4099C72.461 11.6982 65.5465 12.9199 65.5465 10.3848C65.5465 9.59068 66.1597 9.10197 67.052 9.10197C68.4182 9.10197 69.2268 10.0183 69.6728 10.6291L72.21 8.55219C71.5129 7.29992 69.9795 5.71167 67.2193 5.71167C64.236 5.71167 61.9218 7.48318 61.9218 10.4459C61.9218 16.127 68.8085 15.1801 68.8085 17.6236C68.8085 18.5399 68.1115 19.0592 67.0241 19.0592C65.3791 19.0592 64.4033 18.2345 63.6784 17.3182L61.4199 19.5173C62.2007 20.8918 63.9851 22.4799 66.8568 22.4799Z" fill="#F16434"/>
<path d="M79.4469 22.4799C81.3428 22.4799 82.7368 21.3193 83.3502 20.2197V22.0828H87.1142V6.10864H83.2666V15.6993C83.2666 17.4098 82.2629 18.6926 80.6737 18.6926C79.3632 18.6926 78.2479 17.593 78.2479 15.8214V6.10864H74.4004V15.3328C74.4004 18.7231 75.2925 22.4799 79.4469 22.4799Z" fill="#F16434"/>
<path d="M91.0644 26.4811C92.3749 27.2753 94.4101 27.9473 96.4176 27.9473C100.711 27.9473 104.252 26.023 104.252 20.0671V6.10872H100.628V7.78861C100.209 7.17775 98.7317 5.71167 96.2782 5.71167C92.1239 5.71167 89.1685 9.19361 89.1685 14.1111C89.1685 19.0285 91.9287 22.4799 96.1387 22.4799C98.676 22.4799 100.098 20.8918 100.405 20.4335V21.1667C100.405 23.6407 98.4808 24.3432 96.3897 24.3432C94.3823 24.3432 92.7094 23.5185 92.2354 23.2436L91.0644 26.4811ZM100.516 14.0806C100.516 16.9211 99.0106 18.7536 96.7801 18.7536C94.6053 18.7536 93.044 16.8906 93.044 14.0806C93.044 11.2706 94.5775 9.43796 96.7521 9.43796C99.0106 9.43796 100.516 11.3622 100.516 14.0806Z" fill="#F16434"/>
<path d="M108.218 26.4811C109.528 27.2753 111.563 27.9473 113.571 27.9473C117.865 27.9473 121.406 26.023 121.406 20.0671V6.10872H117.781V7.78861C117.363 7.17775 115.885 5.71167 113.432 5.71167C109.277 5.71167 106.322 9.19361 106.322 14.1111C106.322 19.0285 109.082 22.4799 113.292 22.4799C115.829 22.4799 117.251 20.8918 117.558 20.4335V21.1667C117.558 23.6407 115.634 24.3432 113.543 24.3432C111.536 24.3432 109.863 23.5185 109.389 23.2436L108.218 26.4811ZM117.669 14.0806C117.669 16.9211 116.164 18.7536 113.933 18.7536C111.759 18.7536 110.197 16.8906 110.197 14.0806C110.197 11.2706 111.731 9.43796 113.905 9.43796C116.164 9.43796 117.669 11.3622 117.669 14.0806Z" fill="#F16434"/>
<path d="M123.531 14.1416C123.531 18.937 126.515 22.4799 131.199 22.4799C134.823 22.4799 136.775 20.0976 137.333 18.9675L134.795 16.8601C134.377 17.5319 133.234 18.8148 131.254 18.8148C129.107 18.8148 127.546 17.2877 127.463 15.1496H137.723C137.751 14.8441 137.751 14.5387 137.751 14.2333C137.751 9.01035 135.186 5.71167 130.669 5.71167C126.515 5.71167 123.531 9.31579 123.531 14.1416ZM127.574 12.4007C127.741 10.5681 128.912 9.16307 130.725 9.16307C132.481 9.16307 133.764 10.4459 133.847 12.4007H127.574Z" fill="#F16434"/>
<path d="M144.347 22.4799C147.498 22.4799 149.951 20.5252 149.951 17.4099C149.951 11.6982 143.037 12.9199 143.037 10.3848C143.037 9.59068 143.65 9.10197 144.542 9.10197C145.908 9.10197 146.717 10.0183 147.163 10.6291L149.7 8.55219C149.003 7.29992 147.47 5.71167 144.709 5.71167C141.726 5.71167 139.412 7.48318 139.412 10.4459C139.412 16.127 146.299 15.1801 146.299 17.6236C146.299 18.5399 145.602 19.0592 144.514 19.0592C142.869 19.0592 141.893 18.2345 141.168 17.3182L138.91 19.5173C139.691 20.8918 141.475 22.4799 144.347 22.4799Z" fill="#F16434"/>
<path d="M152.365 6.10854H150.804V9.52941H152.337V15.8213C152.337 20.1584 153.871 22.2966 157.356 22.2966C158.415 22.2966 159 22.1439 159 22.1439V18.5398C158.694 18.5703 158.555 18.5703 158.303 18.5703C156.826 18.5703 156.157 18.0815 156.157 15.6992V9.52941H158.89V6.10854H156.157V2.74878H152.365V6.10854Z" fill="#F16434"/>
</svg>
